<svg width="48" height="48" viewBox="0 0 48 48" fill="none" xmlns="http://www.w3.org/2000/svg">
<rect x="0.5" y="0.5" width="47" height="47" rx="23.5" stroke="#CFCFCF"/>
<path d="M24 24.8337C24.4603 24.8337 24.8334 24.4606 24.8334 24.0003C24.8334 23.5401 24.4603 23.167 24 23.167C23.5398 23.167 23.1667 23.5401 23.1667 24.0003C23.1667 24.4606 23.5398 24.8337 24 24.8337Z" stroke="black" stroke-width="2" stroke-linecap="round" stroke-linejoin="round"/>
<path d="M29.8334 24.8337C30.2936 24.8337 30.6667 24.4606 30.6667 24.0003C30.6667 23.5401 30.2936 23.167 29.8334 23.167C29.3731 23.167 29 23.5401 29 24.0003C29 24.4606 29.3731 24.8337 29.8334 24.8337Z" stroke="black" stroke-width="2" stroke-linecap="round" stroke-linejoin="round"/>
<path d="M18.1667 24.8337C18.6269 24.8337 19 24.4606 19 24.0003C19 23.5401 18.6269 23.167 18.1667 23.167C17.7065 23.167 17.3334 23.5401 17.3334 24.0003C17.3334 24.4606 17.7065 24.8337 18.1667 24.8337Z" stroke="black" stroke-width="2" stroke-linecap="round" stroke-linejoin="round"/>
</svg>
