<svg width="24" height="24" viewBox="0 0 24 24" fill="none" xmlns="http://www.w3.org/2000/svg">
<path d="M8.0749 20.375V20.425C8.0749 20.9667 7.88532 21.4271 7.50615 21.8062C7.12699 22.1854 6.66657 22.375 6.1249 22.375C5.59157 22.375 5.12907 22.1792 4.7374 21.7875C4.34574 21.3958 4.1499 20.9333 4.1499 20.4V18.8C3.8499 18.4135 3.60824 17.9836 3.4249 17.5103C3.24157 17.0368 3.1499 16.5417 3.1499 16.025V6.225C3.1499 4.55833 3.8624 3.33333 5.2874 2.55C6.7124 1.76667 8.9534 1.375 12.0104 1.375C15.1779 1.375 17.443 1.74883 18.8057 2.4965C20.1685 3.24417 20.8499 4.487 20.8499 6.225V16.025C20.8499 16.5417 20.7582 17.0368 20.5749 17.5103C20.3916 17.9836 20.1499 18.4135 19.8499 18.8V20.425C19.8499 20.9667 19.6603 21.4271 19.2812 21.8062C18.902 22.1854 18.4416 22.375 17.8999 22.375C17.3666 22.375 16.9041 22.1792 16.5124 21.7875C16.1207 21.3958 15.9249 20.9333 15.9249 20.4V20.375H8.0749ZM6.2999 10.525H17.6999V7.525H6.2999V10.525ZM8.6499 16.375C9.06657 16.375 9.42074 16.2292 9.7124 15.9375C10.0041 15.6458 10.1499 15.2917 10.1499 14.875C10.1499 14.4583 10.0041 14.1042 9.7124 13.8125C9.42074 13.5208 9.06657 13.375 8.6499 13.375C8.23324 13.375 7.87907 13.5208 7.5874 13.8125C7.29574 14.1042 7.1499 14.4583 7.1499 14.875C7.1499 15.2917 7.29574 15.6458 7.5874 15.9375C7.87907 16.2292 8.23324 16.375 8.6499 16.375ZM15.3499 16.375C15.7666 16.375 16.1207 16.2292 16.4124 15.9375C16.7041 15.6458 16.8499 15.2917 16.8499 14.875C16.8499 14.4583 16.7041 14.1042 16.4124 13.8125C16.1207 13.5208 15.7666 13.375 15.3499 13.375C14.9332 13.375 14.5791 13.5208 14.2874 13.8125C13.9957 14.1042 13.8499 14.4583 13.8499 14.875C13.8499 15.2917 13.9957 15.6458 14.2874 15.9375C14.5791 16.2292 14.9332 16.375 15.3499 16.375Z" fill="#E4D01A"/>
</svg>
