<svg width="20" height="20" viewBox="0 0 20 20" fill="none" xmlns="http://www.w3.org/2000/svg">
<path d="M11.6667 1.66699V5.00033C11.6667 5.44235 11.8423 5.86628 12.1549 6.17884C12.4675 6.4914 12.8914 6.66699 13.3334 6.66699H16.6667" stroke="#242424" stroke-width="1.5" stroke-linecap="round" stroke-linejoin="round"/>
<path d="M13.3333 18.3337H14.9999C15.4419 18.3337 15.8659 18.1581 16.1784 17.8455C16.491 17.5329 16.6666 17.109 16.6666 16.667V5.83366L12.4999 1.66699H4.99992C4.55789 1.66699 4.13397 1.84259 3.82141 2.15515C3.50885 2.46771 3.33325 2.89163 3.33325 3.33366V6.25033" stroke="#242424" stroke-width="1.5" stroke-linecap="round" stroke-linejoin="round"/>
<path d="M3.34746 9.59375C2.83777 10.0461 2.42592 10.5978 2.1372 11.2151C1.84848 11.8323 1.68899 12.5021 1.66852 13.1833C1.64804 13.8644 1.76702 14.5426 2.01815 15.176C2.26927 15.8095 2.64724 16.385 3.12885 16.8671C3.61045 17.3492 4.18553 17.7278 4.81875 17.9796C5.45198 18.2314 6.13 18.3511 6.81116 18.3314C7.49233 18.3116 8.16227 18.1528 8.77985 17.8648C9.39742 17.5767 9.94959 17.1655 10.4025 16.6562" stroke="#242424" stroke-width="1.5" stroke-linecap="round" stroke-linejoin="round"/>
<path d="M7.50008 13.3331C7.27907 13.3331 7.06711 13.2453 6.91083 13.089C6.75455 12.9327 6.66675 12.7208 6.66675 12.4998V9.16643C6.66675 8.70643 7.04175 8.32643 7.49591 8.40227C8.52117 8.57467 9.46719 9.06237 10.2023 9.79751C10.9375 10.5327 11.4252 11.4787 11.5976 12.5039C11.6734 12.9573 11.2934 13.3331 10.8334 13.3331H7.50008Z" stroke="#242424" stroke-width="1.5" stroke-linecap="round" stroke-linejoin="round"/>
</svg>
