<svg width="48" height="48" viewBox="0 0 48 48" fill="none" xmlns="http://www.w3.org/2000/svg">
<rect width="48" height="48" rx="24" fill="white"/>
<path d="M25.6667 15.667V19.0003C25.6667 19.4424 25.8423 19.8663 26.1549 20.1788C26.4675 20.4914 26.8914 20.667 27.3334 20.667H30.6667" stroke="#242424" stroke-width="1.5" stroke-linecap="round" stroke-linejoin="round"/>
<path d="M27.3333 32.3337H28.9999C29.4419 32.3337 29.8659 32.1581 30.1784 31.8455C30.491 31.5329 30.6666 31.109 30.6666 30.667V19.8337L26.4999 15.667H18.9999C18.5579 15.667 18.134 15.8426 17.8214 16.1551C17.5088 16.4677 17.3333 16.8916 17.3333 17.3337V20.2503" stroke="#242424" stroke-width="1.5" stroke-linecap="round" stroke-linejoin="round"/>
<path d="M17.3475 23.5938C16.8378 24.0461 16.4259 24.5978 16.1372 25.2151C15.8485 25.8323 15.689 26.5021 15.6685 27.1833C15.648 27.8644 15.767 28.5426 16.0181 29.176C16.2693 29.8095 16.6472 30.385 17.1288 30.8671C17.6105 31.3492 18.1855 31.7278 18.8188 31.9796C19.452 32.2314 20.13 32.3511 20.8112 32.3314C21.4923 32.3116 22.1623 32.1528 22.7798 31.8648C23.3974 31.5767 23.9496 31.1655 24.4025 30.6562" stroke="#242424" stroke-width="1.5" stroke-linecap="round" stroke-linejoin="round"/>
<path d="M21.5001 27.3331C21.2791 27.3331 21.0671 27.2453 20.9108 27.089C20.7545 26.9327 20.6667 26.7208 20.6667 26.4998V23.1664C20.6667 22.7064 21.0417 22.3264 21.4959 22.4023C22.5212 22.5747 23.4672 23.0624 24.2023 23.7975C24.9375 24.5327 25.4252 25.4787 25.5976 26.5039C25.6734 26.9573 25.2934 27.3331 24.8334 27.3331H21.5001Z" stroke="#242424" stroke-width="1.5" stroke-linecap="round" stroke-linejoin="round"/>
</svg>
