<svg width="48" height="48" viewBox="0 0 48 48" fill="none" xmlns="http://www.w3.org/2000/svg">
<rect width="48" height="48" rx="24" fill="white"/>
<g clip-path="url(#clip0_2114_334595)">
<path d="M25.6666 32.333V28.9997C25.6666 28.5576 25.491 28.1337 25.1784 27.8212C24.8659 27.5086 24.4419 27.333 23.9999 27.333C23.5579 27.333 23.134 27.5086 22.8214 27.8212C22.5088 28.1337 22.3333 28.5576 22.3333 28.9997V32.333" stroke="#242424" stroke-width="1.5" stroke-linecap="round" stroke-linejoin="round"/>
<path d="M29.0001 22.333L32.3334 23.9997V30.6663C32.3334 31.1084 32.1578 31.5323 31.8453 31.8449C31.5327 32.1574 31.1088 32.333 30.6667 32.333H17.3334C16.8914 32.333 16.4675 32.1574 16.1549 31.8449C15.8423 31.5323 15.6667 31.1084 15.6667 30.6663V23.9997L19.0001 22.333" stroke="#242424" stroke-width="1.5" stroke-linecap="round" stroke-linejoin="round"/>
<path d="M29 18.167V32.3337" stroke="#242424" stroke-width="1.5" stroke-linecap="round" stroke-linejoin="round"/>
<path d="M17.3333 19.0003L23.9999 15.667L30.6666 19.0003" stroke="#242424" stroke-width="1.5" stroke-linecap="round" stroke-linejoin="round"/>
<path d="M19 18.167V32.3337" stroke="#242424" stroke-width="1.5" stroke-linecap="round" stroke-linejoin="round"/>
<path d="M23.9999 23.1663C24.9204 23.1663 25.6666 22.4201 25.6666 21.4997C25.6666 20.5792 24.9204 19.833 23.9999 19.833C23.0794 19.833 22.3333 20.5792 22.3333 21.4997C22.3333 22.4201 23.0794 23.1663 23.9999 23.1663Z" stroke="#242424" stroke-width="1.5" stroke-linecap="round" stroke-linejoin="round"/>
</g>
<defs>
<clipPath id="clip0_2114_334595">
<rect width="20" height="20" fill="white" transform="translate(14 14)"/>
</clipPath>
</defs>
</svg>
