<svg width="48" height="48" viewBox="0 0 48 48" fill="none" xmlns="http://www.w3.org/2000/svg">
<rect width="48" height="48" rx="24" fill="white"/>
<path d="M23.5833 26.5H19.8333C18.9493 26.5 18.1014 26.8512 17.4763 27.4763C16.8512 28.1014 16.5 28.9493 16.5 29.8333V31.5" stroke="#242424" stroke-width="1.5" stroke-linecap="round" stroke-linejoin="round"/>
<path d="M31.8151 27.8548C32.147 27.5228 32.3335 27.0726 32.3335 26.6031C32.3335 26.1337 32.147 25.6834 31.8151 25.3515C31.4831 25.0195 31.0329 24.833 30.5634 24.833C30.0939 24.833 29.6437 25.0195 29.3117 25.3515L25.9701 28.6948C25.7719 28.8928 25.6269 29.1376 25.5484 29.4065L24.8509 31.7981C24.83 31.8698 24.8287 31.9458 24.8473 32.0182C24.8658 32.0906 24.9035 32.1566 24.9563 32.2094C25.0091 32.2622 25.0751 32.2999 25.1475 32.3184C25.2198 32.337 25.2959 32.3357 25.3676 32.3148L27.7592 31.6173C28.0281 31.5388 28.2729 31.3938 28.4709 31.1956L31.8151 27.8548Z" stroke="#242424" stroke-width="1.5" stroke-linecap="round" stroke-linejoin="round"/>
<path d="M22.3333 23.1667C24.1743 23.1667 25.6667 21.6743 25.6667 19.8333C25.6667 17.9924 24.1743 16.5 22.3333 16.5C20.4924 16.5 19 17.9924 19 19.8333C19 21.6743 20.4924 23.1667 22.3333 23.1667Z" stroke="#242424" stroke-width="1.5" stroke-linecap="round" stroke-linejoin="round"/>
</svg>
