<svg width="20" height="20" viewBox="0 0 20 20" fill="none" xmlns="http://www.w3.org/2000/svg">
<path d="M5 18.333C6.38071 18.333 7.5 17.2137 7.5 15.833C7.5 14.4523 6.38071 13.333 5 13.333C3.61929 13.333 2.5 14.4523 2.5 15.833C2.5 17.2137 3.61929 18.333 5 18.333Z" stroke="#242424" stroke-width="1.5" stroke-linecap="round" stroke-linejoin="round"/>
<path d="M7.5 15.8337H14.5833C15.3569 15.8337 16.0987 15.5264 16.6457 14.9794C17.1927 14.4324 17.5 13.6905 17.5 12.917C17.5 12.1434 17.1927 11.4016 16.6457 10.8546C16.0987 10.3076 15.3569 10.0003 14.5833 10.0003H5.41667C4.64312 10.0003 3.90125 9.69303 3.35427 9.14605C2.80729 8.59907 2.5 7.85721 2.5 7.08366C2.5 6.31011 2.80729 5.56825 3.35427 5.02126C3.90125 4.47428 4.64312 4.16699 5.41667 4.16699H12.5" stroke="#242424" stroke-width="1.5" stroke-linecap="round" stroke-linejoin="round"/>
<path d="M15 6.66699C16.3807 6.66699 17.5 5.5477 17.5 4.16699C17.5 2.78628 16.3807 1.66699 15 1.66699C13.6193 1.66699 12.5 2.78628 12.5 4.16699C12.5 5.5477 13.6193 6.66699 15 6.66699Z" stroke="#242424" stroke-width="1.5" stroke-linecap="round" stroke-linejoin="round"/>
</svg>
