<svg width="20" height="20" viewBox="0 0 20 20" fill="none" xmlns="http://www.w3.org/2000/svg">
<g clip-path="url(#clip0_2114_334596)">
<path d="M11.6666 18.333V14.9997C11.6666 14.5576 11.491 14.1337 11.1784 13.8212C10.8659 13.5086 10.4419 13.333 9.99992 13.333C9.55789 13.333 9.13397 13.5086 8.82141 13.8212C8.50885 14.1337 8.33325 14.5576 8.33325 14.9997V18.333" stroke="#242424" stroke-width="1.5" stroke-linecap="round" stroke-linejoin="round"/>
<path d="M15.0001 8.33301L18.3334 9.99967V16.6663C18.3334 17.1084 18.1578 17.5323 17.8453 17.8449C17.5327 18.1574 17.1088 18.333 16.6667 18.333H3.33341C2.89139 18.333 2.46746 18.1574 2.1549 17.8449C1.84234 17.5323 1.66675 17.1084 1.66675 16.6663V9.99967L5.00008 8.33301" stroke="#242424" stroke-width="1.5" stroke-linecap="round" stroke-linejoin="round"/>
<path d="M15 4.16699V18.3337" stroke="#242424" stroke-width="1.5" stroke-linecap="round" stroke-linejoin="round"/>
<path d="M3.33325 5.00033L9.99992 1.66699L16.6666 5.00033" stroke="#242424" stroke-width="1.5" stroke-linecap="round" stroke-linejoin="round"/>
<path d="M5 4.16699V18.3337" stroke="#242424" stroke-width="1.5" stroke-linecap="round" stroke-linejoin="round"/>
<path d="M9.99992 9.16634C10.9204 9.16634 11.6666 8.42015 11.6666 7.49967C11.6666 6.5792 10.9204 5.83301 9.99992 5.83301C9.07944 5.83301 8.33325 6.5792 8.33325 7.49967C8.33325 8.42015 9.07944 9.16634 9.99992 9.16634Z" stroke="#242424" stroke-width="1.5" stroke-linecap="round" stroke-linejoin="round"/>
</g>
<defs>
<clipPath id="clip0_2114_334596">
<rect width="20" height="20" fill="white"/>
</clipPath>
</defs>
</svg>
