<svg width="48" height="48" viewBox="0 0 48 48" fill="none" xmlns="http://www.w3.org/2000/svg">
<rect width="48" height="48" rx="24" fill="white"/>
<path d="M19 32.333C20.3807 32.333 21.5 31.2137 21.5 29.833C21.5 28.4523 20.3807 27.333 19 27.333C17.6193 27.333 16.5 28.4523 16.5 29.833C16.5 31.2137 17.6193 32.333 19 32.333Z" stroke="#242424" stroke-width="1.5" stroke-linecap="round" stroke-linejoin="round"/>
<path d="M21.5 29.8337H28.5833C29.3569 29.8337 30.0987 29.5264 30.6457 28.9794C31.1927 28.4324 31.5 27.6905 31.5 26.917C31.5 26.1434 31.1927 25.4016 30.6457 24.8546C30.0987 24.3076 29.3569 24.0003 28.5833 24.0003H19.4167C18.6431 24.0003 17.9013 23.693 17.3543 23.1461C16.8073 22.5991 16.5 21.8572 16.5 21.0837C16.5 20.3101 16.8073 19.5682 17.3543 19.0213C17.9013 18.4743 18.6431 18.167 19.4167 18.167H26.5" stroke="#242424" stroke-width="1.5" stroke-linecap="round" stroke-linejoin="round"/>
<path d="M29 20.667C30.3807 20.667 31.5 19.5477 31.5 18.167C31.5 16.7863 30.3807 15.667 29 15.667C27.6193 15.667 26.5 16.7863 26.5 18.167C26.5 19.5477 27.6193 20.667 29 20.667Z" stroke="#242424" stroke-width="1.5" stroke-linecap="round" stroke-linejoin="round"/>
</svg>
