<svg width="20" height="20" viewBox="0 0 20 20" fill="none" xmlns="http://www.w3.org/2000/svg">
<path d="M9.58333 12.5H5.83333C4.94928 12.5 4.10143 12.8512 3.47631 13.4763C2.85119 14.1014 2.5 14.9493 2.5 15.8333V17.5" stroke="#242424" stroke-width="1.5" stroke-linecap="round" stroke-linejoin="round"/>
<path d="M17.8151 13.8548C18.147 13.5228 18.3335 13.0726 18.3335 12.6031C18.3335 12.1337 18.147 11.6834 17.8151 11.3515C17.4831 11.0195 17.0329 10.833 16.5634 10.833C16.0939 10.833 15.6437 11.0195 15.3117 11.3515L11.9701 14.6948C11.7719 14.8928 11.6269 15.1376 11.5484 15.4065L10.8509 17.7981C10.83 17.8698 10.8287 17.9458 10.8473 18.0182C10.8658 18.0906 10.9035 18.1566 10.9563 18.2094C11.0091 18.2622 11.0751 18.2999 11.1475 18.3184C11.2198 18.337 11.2959 18.3357 11.3676 18.3148L13.7592 17.6173C14.0281 17.5388 14.2729 17.3938 14.4709 17.1956L17.8151 13.8548Z" stroke="#242424" stroke-width="1.5" stroke-linecap="round" stroke-linejoin="round"/>
<path d="M8.33333 9.16667C10.1743 9.16667 11.6667 7.67428 11.6667 5.83333C11.6667 3.99238 10.1743 2.5 8.33333 2.5C6.49238 2.5 5 3.99238 5 5.83333C5 7.67428 6.49238 9.16667 8.33333 9.16667Z" stroke="#242424" stroke-width="1.5" stroke-linecap="round" stroke-linejoin="round"/>
</svg>
