<svg width="48" height="48" viewBox="0 0 48 48" fill="none" xmlns="http://www.w3.org/2000/svg">
<rect width="48" height="48" rx="24" fill="white"/>
<path d="M21.5 16.5H17.3333C16.8731 16.5 16.5 16.8731 16.5 17.3333V23.1667C16.5 23.6269 16.8731 24 17.3333 24H21.5C21.9602 24 22.3333 23.6269 22.3333 23.1667V17.3333C22.3333 16.8731 21.9602 16.5 21.5 16.5Z" stroke="#242424" stroke-width="1.5" stroke-linecap="round" stroke-linejoin="round"/>
<path d="M30.6667 16.5H26.5001C26.0398 16.5 25.6667 16.8731 25.6667 17.3333V19.8333C25.6667 20.2936 26.0398 20.6667 26.5001 20.6667H30.6667C31.127 20.6667 31.5001 20.2936 31.5001 19.8333V17.3333C31.5001 16.8731 31.127 16.5 30.6667 16.5Z" stroke="#242424" stroke-width="1.5" stroke-linecap="round" stroke-linejoin="round"/>
<path d="M30.6667 24H26.5001C26.0398 24 25.6667 24.3731 25.6667 24.8333V30.6667C25.6667 31.1269 26.0398 31.5 26.5001 31.5H30.6667C31.127 31.5 31.5001 31.1269 31.5001 30.6667V24.8333C31.5001 24.3731 31.127 24 30.6667 24Z" stroke="#242424" stroke-width="1.5" stroke-linecap="round" stroke-linejoin="round"/>
<path d="M21.5 27.333H17.3333C16.8731 27.333 16.5 27.7061 16.5 28.1663V30.6663C16.5 31.1266 16.8731 31.4997 17.3333 31.4997H21.5C21.9602 31.4997 22.3333 31.1266 22.3333 30.6663V28.1663C22.3333 27.7061 21.9602 27.333 21.5 27.333Z" stroke="#242424" stroke-width="1.5" stroke-linecap="round" stroke-linejoin="round"/>
</svg>
