<svg width="48" height="48" viewBox="0 0 48 48" fill="none" xmlns="http://www.w3.org/2000/svg">
<rect width="48" height="48" rx="24" fill="white"/>
<path d="M26.9167 20.2497L28.8334 22.1663C28.9892 22.319 29.1986 22.4046 29.4167 22.4046C29.6349 22.4046 29.8443 22.319 30.0001 22.1663L31.7501 20.4163C31.9028 20.2606 31.9883 20.0511 31.9883 19.833C31.9883 19.6149 31.9028 19.4054 31.7501 19.2497L29.8334 17.333" stroke="#242424" stroke-width="1.5" stroke-linecap="round" stroke-linejoin="round"/>
<path d="M31.5 15.667L23.5 23.667" stroke="#242424" stroke-width="1.5" stroke-linecap="round" stroke-linejoin="round"/>
<path d="M20.2501 31.4997C22.7814 31.4997 24.8334 29.4476 24.8334 26.9163C24.8334 24.385 22.7814 22.333 20.2501 22.333C17.7188 22.333 15.6667 24.385 15.6667 26.9163C15.6667 29.4476 17.7188 31.4997 20.2501 31.4997Z" stroke="#242424" stroke-width="1.5" stroke-linecap="round" stroke-linejoin="round"/>
</svg>
