<svg width="26" height="26" viewBox="0 0 26 26" fill="none" xmlns="http://www.w3.org/2000/svg">
<g clip-path="url(#clip0_2114_334665)">
<path d="M25.994 24.1562L23.9514 12.9025C23.931 12.7902 23.8613 12.6929 23.7615 12.6374L18.6203 9.77791C18.5536 9.74074 18.4788 9.72596 18.4053 9.73165L19.3406 21.7977L19.3093 21.8117L25.4622 24.572C25.5122 24.5944 25.5654 24.6055 25.6184 24.6055C25.7022 24.6055 25.7853 24.5779 25.8536 24.5245C25.9652 24.4373 26.0192 24.2955 25.994 24.1562Z" fill="#44C868"/>
<path d="M13.0001 12.5117L7.74197 9.773C7.67895 9.74014 7.60908 9.72673 7.54027 9.73135C7.5585 9.73024 7.57683 9.73034 7.59501 9.73176L6.65967 21.7978L12.8439 24.5722C12.8938 24.5945 12.9471 24.6057 13.0001 24.6057V12.5117Z" fill="#44C868"/>
<path d="M7.59485 9.73165C7.52137 9.72596 7.44657 9.74074 7.37984 9.77786L2.23859 12.6374C2.13875 12.6929 2.06908 12.7901 2.04872 12.9025L0.00613833 24.1562C-0.0191508 24.2954 0.0348806 24.4372 0.146447 24.5245C0.21485 24.5779 0.297877 24.6055 0.381666 24.6055C0.434631 24.6055 0.487901 24.5945 0.537921 24.572L6.65728 21.8268L7.59485 9.73165Z" fill="#4CE166"/>
<path d="M18.4051 9.73145C18.3545 9.73536 18.3045 9.74881 18.2582 9.77298L13 12.5116V24.6056H13.0001C13.0531 24.6056 13.1064 24.5945 13.1563 24.5721L19.3405 21.7978L18.4051 9.73145Z" fill="#4CE166"/>
<path d="M1.42958 16.3126L1.01465 18.5987L7.15889 15.3535L7.30153 13.5132L7.3252 13.208L1.42958 16.3126Z" fill="#FFDB56"/>
<path d="M7.2143 14.6396L7.159 15.3532L1.01476 18.5985L0.00613833 24.1556C-0.0191508 24.2949 0.0348806 24.4366 0.146447 24.5239C0.21485 24.5774 0.297877 24.6049 0.381666 24.6049C0.434631 24.6049 0.487901 24.5939 0.537921 24.5715L6.65728 21.8262L7.2143 14.6396Z" fill="#A8EEFC"/>
<path d="M13.0015 14.0196L7.32524 13.208L7.15894 15.3535L13 24.2239V20.9984L9.51448 15.51L13.0015 15.9271V14.0196Z" fill="#FFBB24"/>
<path d="M23.3567 12.4118L20.8869 11.0381L18.5488 11.5844L18.5781 11.962L18.6936 13.4516L23.3567 12.4118Z" fill="#FFBB24"/>
<path d="M18.9008 16.1272L18.6794 13.2709L18.5488 11.585L13.0015 14.02V15.9275L16.625 14.3517L18.9008 16.1272Z" fill="#FFDB56"/>
<path d="M25.9939 24.1562L25.4809 21.3294L18.6936 13.4521L18.901 16.1272L25.8616 24.5174C25.9674 24.4297 26.0186 24.2919 25.9939 24.1562Z" fill="#FFBB24"/>
<path d="M13.0244 1.39453C10.081 1.39453 7.68628 3.78725 7.68628 6.7283C7.68628 8.54759 8.55002 10.5008 10.2536 12.5337C11.5048 14.0268 12.739 14.9872 12.7909 15.0273C12.8597 15.0805 12.942 15.1071 13.0245 15.1071C13.1068 15.1071 13.1893 15.0805 13.258 15.0273C13.3099 14.9872 14.5441 14.0268 15.7954 12.5337C17.4989 10.5008 18.3627 8.54764 18.3627 6.7283C18.3626 3.78725 15.9679 1.39453 13.0244 1.39453ZM15.0013 6.72825C15.0013 7.81913 14.1162 8.70354 13.0244 8.70354C11.9326 8.70354 11.0475 7.81918 11.0475 6.72825C11.0475 5.63731 11.9326 4.75296 13.0244 4.75296C14.1162 4.75296 15.0013 5.63736 15.0013 6.72825Z" fill="#FF4A4A"/>
<path d="M13.0245 1.39453C12.7912 1.39453 12.5614 1.40966 12.3359 1.43881C14.9554 1.77737 16.9856 4.02033 16.9856 6.7283C16.9856 8.54759 16.1218 10.5008 14.4183 12.5337C13.6136 13.4939 12.8166 14.2332 12.336 14.6497C12.6028 14.8809 12.7725 15.013 12.791 15.0273C12.8597 15.0805 12.9421 15.1071 13.0245 15.1071C13.1069 15.1071 13.1893 15.0805 13.2581 15.0273C13.31 14.9872 14.5442 14.0268 15.7954 12.5337C17.499 10.5008 18.3627 8.54764 18.3627 6.7283C18.3626 3.78725 15.9679 1.39453 13.0245 1.39453Z" fill="#E7343F"/>
<path d="M13.1563 24.5714L15.4559 23.5397L13 20.998V24.6048H13.0001C13.0531 24.6048 13.1064 24.5938 13.1563 24.5714Z" fill="#FFDB56"/>
<path d="M23.9513 12.9024C23.9309 12.79 23.8613 12.6927 23.7614 12.6372L23.3567 12.4121L18.6936 13.452L25.4808 21.3292L23.9513 12.9024Z" fill="#1EA4E9"/>
<path d="M12.9999 24.6052C13 24.6052 13 24.6052 12.9999 24.6052V24.2239L7.15896 15.3535L6.65942 21.7974L12.8436 24.5718C12.8935 24.5942 12.9468 24.6052 12.9999 24.6052Z" fill="#1EA4E9"/>
</g>
<defs>
<clipPath id="clip0_2114_334665">
<rect width="26" height="26" fill="white"/>
</clipPath>
</defs>
</svg>
