<svg width="24" height="24" viewBox="0 0 24 24" fill="none" xmlns="http://www.w3.org/2000/svg">
<path d="M10.4999 13.0002V14.7002C10.4999 14.9169 10.5791 15.1044 10.7374 15.2627C10.8957 15.421 11.0832 15.5002 11.2999 15.5002H12.7249C12.9582 15.5002 13.1457 15.421 13.2874 15.2627C13.4291 15.1044 13.4999 14.9169 13.4999 14.7002V13.0002H15.2249C15.4582 13.0002 15.6457 12.921 15.7874 12.7627C15.9291 12.6044 15.9999 12.4169 15.9999 12.2002V10.7752C15.9999 10.5419 15.9291 10.3544 15.7874 10.2127C15.6457 10.071 15.4582 10.0002 15.2249 10.0002H13.4999V8.2752C13.4999 8.04186 13.4291 7.85436 13.2874 7.7127C13.1457 7.57103 12.9582 7.5002 12.7249 7.5002H11.2999C11.0832 7.5002 10.8957 7.57103 10.7374 7.7127C10.5791 7.85436 10.4999 8.04186 10.4999 8.2752V10.0002H8.7999C8.58324 10.0002 8.39574 10.071 8.2374 10.2127C8.07907 10.3544 7.9999 10.5419 7.9999 10.7752V12.2002C7.9999 12.4169 8.07907 12.6044 8.2374 12.7627C8.39574 12.921 8.58324 13.0002 8.7999 13.0002H10.4999ZM11.9999 22.7002C11.8332 22.7002 11.6666 22.6877 11.4999 22.6627C11.3332 22.6377 11.1666 22.6002 10.9999 22.5502C8.63324 21.7669 6.73324 20.271 5.2999 18.0627C3.86657 15.8544 3.1499 13.5335 3.1499 11.1002V6.6002C3.1499 5.93353 3.3374 5.33353 3.7124 4.8002C4.0874 4.26686 4.58324 3.88353 5.1999 3.6502L10.8999 1.5252C11.2499 1.39186 11.6166 1.3252 11.9999 1.3252C12.3832 1.3252 12.7499 1.39186 13.0999 1.5252L18.7999 3.6502C19.4166 3.88353 19.9124 4.26686 20.2874 4.8002C20.6624 5.33353 20.8499 5.93353 20.8499 6.6002V11.1002C20.8499 13.5335 20.1332 15.8544 18.6999 18.0627C17.2666 20.271 15.3666 21.7669 12.9999 22.5502C12.8332 22.6002 12.6666 22.6377 12.4999 22.6627C12.3332 22.6877 12.1666 22.7002 11.9999 22.7002Z" fill="#FF4D4D"/>
</svg>
