<svg width="48" height="48" viewBox="0 0 48 48" fill="none" xmlns="http://www.w3.org/2000/svg">
<rect x="0.5" y="0.5" width="47" height="47" rx="23.5" stroke="#CFCFCF"/>
<g clip-path="url(#clip0_2114_333829)">
<path d="M19 20.667C19 19.3409 19.5268 18.0691 20.4645 17.1315C21.4021 16.1938 22.6739 15.667 24 15.667C25.3261 15.667 26.5979 16.1938 27.5355 17.1315C28.4732 18.0691 29 19.3409 29 20.667C29 26.5003 31.5 28.167 31.5 28.167H16.5C16.5 28.167 19 26.5003 19 20.667Z" stroke="#242424" stroke-width="1.5" stroke-linecap="round" stroke-linejoin="round"/>
<path d="M22.5834 31.5C22.7229 31.7537 22.9279 31.9653 23.1771 32.1127C23.4263 32.26 23.7105 32.3378 24 32.3378C24.2896 32.3378 24.5738 32.26 24.823 32.1127C25.0722 31.9653 25.2772 31.7537 25.4167 31.5" stroke="#242424" stroke-width="1.5" stroke-linecap="round" stroke-linejoin="round"/>
<path d="M17.3333 15.667C16.3333 17.0837 15.6666 18.7503 15.6666 20.667" stroke="#242424" stroke-width="1.5" stroke-linecap="round" stroke-linejoin="round"/>
<path d="M32.3333 20.667C32.3333 18.7503 31.6666 17.0837 30.6666 15.667" stroke="#242424" stroke-width="1.5" stroke-linecap="round" stroke-linejoin="round"/>
</g>
<defs>
<clipPath id="clip0_2114_333829">
<rect width="20" height="20" fill="white" transform="translate(14 14)"/>
</clipPath>
</defs>
</svg>
