<svg width="36" height="37" viewBox="0 0 36 37" fill="none" xmlns="http://www.w3.org/2000/svg">
<rect y="0.942261" width="35.1155" height="35.1155" rx="17.5577" fill="#FF4D4D"/>
<path d="M19.6208 26.2036L14.9241 24.5575L10.8419 26.1377C10.6956 26.1963 10.5529 26.2145 10.4139 26.1926C10.2749 26.1706 10.1469 26.1231 10.0298 26.0499C9.91279 25.9768 9.82134 25.878 9.7555 25.7537C9.68966 25.6293 9.65674 25.4866 9.65674 25.3257V13.0133C9.65674 12.8231 9.71161 12.6548 9.82134 12.5085C9.93108 12.3622 10.0811 12.2525 10.2713 12.1793L14.3534 10.7967C14.4412 10.7674 14.5327 10.7454 14.6278 10.7308C14.7229 10.7162 14.8216 10.7089 14.9241 10.7089C15.0265 10.7089 15.1252 10.7162 15.2203 10.7308C15.3155 10.7454 15.4069 10.7674 15.4947 10.7967L20.1914 12.4427L24.2736 10.8625C24.4199 10.804 24.5625 10.7857 24.7015 10.8076C24.8405 10.8296 24.9686 10.8771 25.0856 10.9503C25.2027 11.0234 25.2941 11.1222 25.3599 11.2466C25.4258 11.3709 25.4587 11.5136 25.4587 11.6745V23.9869C25.4587 24.1771 25.4038 24.3454 25.2941 24.4917C25.1844 24.638 25.0344 24.7477 24.8442 24.8209L20.762 26.2036C20.6742 26.2328 20.5828 26.2548 20.4877 26.2694C20.3926 26.284 20.2938 26.2914 20.1914 26.2914C20.089 26.2914 19.9902 26.284 19.8951 26.2694C19.8 26.2548 19.7085 26.2328 19.6208 26.2036ZM19.3135 24.2503V13.979L15.8019 12.7499V23.0212L19.3135 24.2503Z" fill="white"/>
</svg>
