<svg width="24" height="24" viewBox="0 0 24 24" fill="none" xmlns="http://www.w3.org/2000/svg">
<g clip-path="url(#clip0_2114_335375)">
<path d="M10.2 11.525V8.975C10.2 8.64167 10.0833 8.35833 9.85 8.125C9.61667 7.89167 9.33333 7.775 9 7.775C8.66667 7.775 8.38333 7.89167 8.15 8.125C7.91667 8.35833 7.8 8.64167 7.8 8.975V11.825C7.8 12.0417 7.8375 12.2417 7.9125 12.425C7.9875 12.6083 8.1 12.775 8.25 12.925L10.4 15.075C10.6333 15.3083 10.9125 15.4208 11.2375 15.4125C11.5625 15.4042 11.8417 15.2833 12.075 15.05C12.3083 14.8167 12.425 14.5375 12.425 14.2125C12.425 13.8875 12.3083 13.6083 12.075 13.375L10.2 11.525ZM20.85 12C20.85 11.2167 20.6958 10.475 20.3875 9.775C20.0792 9.075 19.6583 8.45833 19.125 7.925C18.825 7.60833 18.6417 7.2375 18.575 6.8125C18.5083 6.3875 18.5833 5.99167 18.8 5.625C19.0333 5.24167 19.35 4.99583 19.75 4.8875C20.15 4.77917 20.5083 4.85833 20.825 5.125C21.825 5.975 22.6042 6.99583 23.1625 8.1875C23.7208 9.37917 24 10.65 24 12C24 13.35 23.7208 14.6208 23.1625 15.8125C22.6042 17.0042 21.825 18.025 20.825 18.875C20.5083 19.1417 20.1542 19.2208 19.7625 19.1125C19.3708 19.0042 19.0583 18.7583 18.825 18.375C18.6083 18.0083 18.5292 17.6125 18.5875 17.1875C18.6458 16.7625 18.825 16.3917 19.125 16.075C19.6583 15.5417 20.0792 14.925 20.3875 14.225C20.6958 13.525 20.85 12.7833 20.85 12ZM9 21C7.75 21 6.57917 20.7625 5.4875 20.2875C4.39583 19.8125 3.44583 19.1708 2.6375 18.3625C1.82917 17.5542 1.1875 16.6042 0.7125 15.5125C0.2375 14.4208 0 13.25 0 12C0 10.75 0.2375 9.57917 0.7125 8.4875C1.1875 7.39583 1.82917 6.44583 2.6375 5.6375C3.44583 4.82917 4.39583 4.1875 5.4875 3.7125C6.57917 3.2375 7.75 3 9 3C10.25 3 11.4208 3.2375 12.5125 3.7125C13.6042 4.1875 14.5542 4.82917 15.3625 5.6375C16.1708 6.44583 16.8125 7.39583 17.2875 8.4875C17.7625 9.57917 18 10.75 18 12C18 13.25 17.7625 14.4208 17.2875 15.5125C16.8125 16.6042 16.1708 17.5542 15.3625 18.3625C14.5542 19.1708 13.6042 19.8125 12.5125 20.2875C11.4208 20.7625 10.25 21 9 21Z" fill="#81DA2A"/>
</g>
<defs>
<clipPath id="clip0_2114_335375">
<rect width="24" height="24" fill="white"/>
</clipPath>
</defs>
</svg>
